<svg xmlns="http://www.w3.org/2000/svg" xmlns:xlink="http://www.w3.org/1999/xlink" version="1.1" id="Layer_1" x="0px" y="0px" enable-background="new 0 0 1024 896" xml:space="preserve" viewBox="212.7 66.79 712.92 761.55">
<path fill="#FFFFFF" opacity="1.000000" stroke="none" d=" M619.111877,78.730774   C643.729492,92.808792 668.026001,106.696892 692.277344,120.663368   C739.340515,147.767273 786.391907,174.891663 833.417969,202.059952   C846.688049,209.726471 859.998535,217.339249 873.036438,225.388214   C901.475769,242.945236 917.432983,268.780090 922.366211,301.583130   C924.557068,316.151184 922.987183,330.852753 923.350891,345.488800   C923.414429,348.045105 922.134827,349.037018 919.689209,349.081207   C910.530823,349.246643 901.359741,349.187317 892.240234,350.237915   C888.610657,350.656036 887.645752,348.863098 887.684509,345.551758   C887.794006,336.220825 888.138062,326.862000 887.598816,317.560028   C886.163574,292.800781 876.369751,272.272766 855.885071,257.475006   C844.098816,248.960846 831.103271,242.445709 818.594788,235.150101   C775.858582,210.224045 732.923523,185.638901 690.055237,160.939468   C662.632202,145.139130 635.410828,128.971909 607.699341,113.694145   C580.771973,98.848724 553.615051,99.483635 526.859741,114.929123   C470.742401,147.324966 414.567108,179.620438 358.447449,212.012314   C333.927155,226.165268 309.272430,240.103088 285.068726,254.781647   C261.911224,268.825684 249.637390,290.448334 249.426849,317.054688   C248.738541,404.041321 248.974197,491.037109 249.237167,578.028259   C249.320847,605.709167 261.251740,627.479309 285.125061,642.074768   C300.900818,651.719666 316.864014,661.060486 332.807465,670.428284   C355.068573,683.508118 377.431732,696.414551 399.667847,709.536499   C411.598724,716.577087 424.110657,721.801514 438.111420,722.408447   C457.656647,723.255615 474.865997,717.215576 489.314423,703.939209   C504.407715,690.070129 511.913879,672.900696 512.871826,652.276367   C514.253845,622.524353 516.628845,592.819031 518.515320,563.089600   C519.316589,550.463196 519.968262,537.827026 520.659241,525.193787   C521.031982,518.379578 521.188171,511.550049 521.714172,504.748474   C523.177002,485.832336 515.448181,470.725128 502.338440,457.928589   C493.356903,449.161560 485.113617,439.940582 478.919769,428.867859   C468.233551,409.764313 465.599854,389.414429 468.075958,368.020355   C470.063690,350.845673 471.768982,333.638519 473.685394,316.455353   C475.785919,297.621643 477.972900,278.797577 480.145020,259.971924   C481.631073,247.092102 483.047485,234.202805 484.703888,221.344650   C485.725800,213.411942 491.618378,208.349701 498.824158,208.743362   C506.198273,209.146255 511.680115,215.156525 511.261932,223.492950   C510.286377,242.938202 508.903900,262.363251 507.655365,281.794495   C506.908447,293.418762 506.087646,305.038330 505.327637,316.661774   C504.046509,336.254822 502.761688,355.847687 501.526581,375.443665   C500.421295,392.978973 504.706390,408.789551 516.750488,422.026550   C523.027527,428.925354 529.639648,435.535461 535.658813,442.649628   C550.730164,460.462921 557.277832,481.072937 556.530945,504.483887   C555.755676,528.786316 554.067444,553.033325 553.040955,577.317932   C551.881104,604.754822 550.434937,632.202881 548.129089,659.563110   C543.559082,713.790039 501.901154,754.968140 449.400787,758.373657   C429.851990,759.641602 411.262024,756.211182 393.864685,747.119141   C363.435089,731.216248 334.274536,713.100952 304.698059,695.712219   C289.623077,686.849304 274.145050,678.609131 259.761261,668.652466   C230.550308,648.432190 214.979736,620.270508 213.740356,584.820435   C211.766281,528.355164 213.274612,471.855774 212.952988,415.372070   C212.774597,384.042480 212.752136,352.709534 213.011902,321.381012   C213.150589,304.655273 215.248810,288.174377 222.278915,272.688232   C231.349228,252.707870 244.898331,236.576782 263.896149,225.473404   C302.295868,203.030441 340.846741,180.846069 379.347656,158.576447   C424.044556,132.722916 468.413696,106.276878 513.570557,81.252853   C547.710327,62.334064 583.268982,62.485649 619.111877,78.730774  z"/>
<path fill="#FFFFFF" opacity="1.000000" stroke="none" d=" M664.463867,676.444702   C644.800598,707.448120 629.560242,739.939514 621.717102,775.758606   C624.077393,776.217529 625.335632,774.956726 626.699402,774.161682   C667.711487,750.252869 708.720581,726.338867 749.701599,702.376831   C779.611145,684.888306 809.310913,667.032837 839.425171,649.905151   C860.747681,637.777832 877.140503,620.484558 892.450317,601.924377   C903.508301,588.518555 912.872070,573.950806 920.477844,558.288452   C920.969604,557.275757 921.327576,556.087341 922.543091,555.689026   C923.365540,555.855652 923.746399,556.408752 923.770874,557.089783   C924.681702,582.357361 924.496338,607.463562 912.355835,630.702515   C902.158752,650.221375 886.507996,664.393494 867.799805,675.350342   C820.085022,703.295288 772.250549,731.035950 724.500916,758.921509   C688.116943,780.169678 651.843079,801.607788 614.909973,821.899109   C611.700928,823.662109 608.508484,825.520630 605.130371,826.898804   C593.098022,831.807861 580.563599,823.609619 580.807495,810.536621   C581.090454,795.372986 583.638367,780.401062 587.094910,765.663208   C596.015259,727.629578 612.289795,692.798950 633.564819,660.158569   C639.941284,650.375793 646.868286,641.008423 653.772705,631.615723   C655.059326,629.865356 655.495972,628.330322 655.096252,626.127197   C652.118042,609.715088 650.460754,593.138367 650.866699,576.470154   C651.734131,540.854187 660.040894,507.264618 679.789917,477.147156   C696.257202,452.034302 718.874023,433.699921 744.989014,419.445404   C779.038208,400.860138 815.989990,391.235565 853.886597,384.728363   C875.721558,380.979095 897.715149,378.658356 919.916077,378.622955   C923.524719,378.617188 925.273804,379.370819 925.406189,383.539490   C926.742615,425.632355 921.806885,466.996704 909.992126,507.360565   C899.746521,542.363892 883.184692,574.026611 856.884949,599.993286   C830.207397,626.332947 797.996765,641.846619 761.552917,649.315735   C736.709656,654.407288 711.719177,655.374756 686.567139,652.478271   C683.021667,652.069946 680.601624,652.915466 678.575195,655.996887   C674.092590,662.813599 669.314514,669.435974 664.463867,676.444702  M818.997864,428.580475   C800.194702,434.313019 781.591797,440.492340 764.103455,449.719727   C743.170166,460.764740 724.665833,474.700012 711.151245,494.334869   C692.114502,521.992493 685.639160,553.216431 686.370850,586.291138   C686.399353,587.578125 686.239807,589.003357 688.317627,590.111206   C728.365845,546.911377 772.222778,508.134674 825.369385,481.112061   C788.983276,528.542175 747.435730,571.408813 708.533936,617.571533   C710.735291,617.763977 711.873047,617.944336 713.011719,617.950256   C723.176086,618.002930 733.261230,617.329102 743.353577,615.864136   C799.999939,607.641357 840.877197,578.153259 865.002380,526.030151   C874.846863,504.760803 880.927124,482.342560 884.751099,459.249268   C886.843384,446.613586 888.494385,433.936249 889.690186,421.192047   C889.975220,418.153961 889.630859,415.898132 885.530273,416.470398   C863.452332,419.551331 841.394165,422.716522 818.997864,428.580475  z"/>
<path fill="#FFFFFF" opacity="1.000000" stroke="none" d=" M628.098145,214.349121   C632.474976,209.919052 637.115051,207.321045 643.132385,209.602554   C649.328918,211.952026 651.733521,216.873322 652.424744,223.159683   C655.693115,252.886566 659.007385,282.608795 662.441711,312.316895   C664.959595,334.097748 668.045166,355.814362 669.448914,377.715790   C670.951294,401.157288 664.137085,421.969086 650.148926,440.704407   C643.139343,450.092896 633.919434,457.385742 626.677124,466.567627   C616.726868,479.182678 614.506409,493.562714 615.486633,508.946564   C616.459778,524.219727 617.345459,539.498657 618.235596,554.776978   C619.493042,576.362549 620.659546,597.953735 622.003845,619.533813   C622.312683,624.491516 621.765381,628.762634 618.624329,633.080261   C608.632874,646.814514 599.349609,661.040283 591.722900,676.273132   C591.531433,676.655579 590.997925,676.866821 590.272522,677.431396   C588.969604,674.832336 589.183960,672.138000 589.029541,669.649231   C588.133118,655.198914 587.461182,640.734863 586.656189,626.278625   C585.518433,605.846252 584.072571,585.427246 583.232727,564.983032   C582.276855,541.714233 579.819824,518.493103 580.638916,495.164124   C581.369812,474.349518 589.429810,456.413300 602.770386,440.740143   C607.619934,435.042664 612.950195,429.752594 618.092773,424.306610   C631.854675,409.732574 637.332153,392.593628 635.246460,372.595825   C633.538818,356.223633 632.806396,339.749207 631.671082,323.318024   C630.467041,305.890808 629.190674,288.467621 628.144714,271.030762   C627.178223,254.919067 626.481323,238.791245 625.649902,222.671341   C625.498840,219.741730 626.122192,217.050034 628.098145,214.349121  z"/>
<path fill="#FFFFFF" opacity="1.000000" stroke="none" d=" M605.062256,242.275314   C606.186523,274.189453 607.151855,305.634918 608.465698,337.065857   C608.792358,344.881531 609.371582,352.689789 609.340332,360.516754   C609.305786,369.181091 604.100647,374.587189 595.538391,375.035217   C586.982605,375.482941 580.721313,370.142120 579.861023,361.639771   C579.760620,360.647491 579.747498,359.643829 579.739502,358.645111   C579.384888,314.008148 579.013855,269.371307 578.705322,224.734009   C578.650085,216.738953 581.960754,211.518890 587.849426,209.740891   C595.061279,207.563354 601.660278,211.538254 603.390137,218.929291   C605.157288,226.479401 603.522339,234.248520 605.062256,242.275314  z"/>
<path fill="#FFFFFF" opacity="1.000000" stroke="none" d=" M557.325867,305.000153   C557.231873,323.145996 557.237915,340.793152 557.006226,358.437134   C556.874451,368.472260 553.072754,373.394073 545.010681,374.776215   C535.894104,376.339142 527.957947,370.798615 527.475220,361.612854   C527.031494,353.169281 527.611694,344.661255 527.944763,336.189636   C528.833374,313.587189 529.820557,290.988556 530.790100,268.389343   C531.438904,253.266357 532.027344,238.139801 532.827209,223.024597   C533.396912,212.259109 542.180481,206.122467 550.776062,210.334915   C556.471802,213.126236 558.060730,218.451340 558.099915,224.113708   C558.201172,238.760895 558.251465,253.421448 557.733826,268.055847   C557.303955,280.209259 557.515442,292.353455 557.325867,305.000153  z"/>
</svg>