<svg xmlns="http://www.w3.org/2000/svg" version="1.1" xmlns:xlink="http://www.w3.org/1999/xlink" width="1000" height="1000"><g clip-path="url(#SvgjsClipPath1100)"><rect width="1000" height="1000" fill="#000000"></rect><g transform="matrix(1.3920375452412201,0,0,1.3920375452412201,150,166.02931233345274)"><svg xmlns="http://www.w3.org/2000/svg" version="1.1" xmlns:xlink="http://www.w3.org/1999/xlink" width="502.86" height="479.83"><svg xmlns="http://www.w3.org/2000/svg" xmlns:xlink="http://www.w3.org/1999/xlink" version="1.1" id="Layer_1" x="0px" y="0px" enable-background="new 0 0 1024 1024" xml:space="preserve" viewBox="261.7 272.98 502.86 479.83">
<path fill="#ffffff" opacity="1.000000" stroke="none" d=" M559.857788,710.787109   C625.665588,695.249023 674.396545,657.877563 706.101685,598.739990   C717.358398,577.743469 724.000793,555.140686 725.899231,531.158386   C726.960815,517.747559 727.527771,504.435638 723.016296,491.659058   C718.228577,478.100006 708.270020,469.940186 693.793701,468.536469   C680.062378,467.204987 669.034058,472.405914 661.420044,484.178162   C654.741516,494.503937 652.591431,506.331207 650.240601,518.088501   C647.236450,533.113464 644.411194,548.191101 637.169312,561.954163   C626.314209,582.583740 610.616333,597.444092 587.187317,602.195129   C554.759460,608.770996 524.155029,592.786560 509.548859,562.787170   C502.050140,547.385681 499.338409,530.910461 496.638824,514.298279   C494.909027,503.653839 493.300385,492.893616 486.672058,483.734589   C478.130341,471.931549 466.379242,467.305054 452.318512,468.507507   C437.960327,469.735413 427.849884,477.405060 422.137268,490.629333   C416.789795,503.008240 415.527161,516.351624 413.332184,529.465393   C410.034119,549.169495 404.076721,567.723389 389.541504,582.313904   C351.084534,620.916931 284.589508,604.952759 267.710968,553.085510   C261.527527,534.083984 260.803406,514.634766 262.479919,494.829681   C264.493225,471.045837 270.140564,448.201324 279.011475,426.183380   C297.513916,380.259613 327.133667,343.273468 368.376526,315.553955   C399.658875,294.528900 434.097412,281.784943 471.067535,276.097687   C522.623535,268.166595 572.244385,275.374451 619.597534,297.478027   C650.059937,311.697296 676.410461,331.442810 698.825134,356.471832   C702.179993,360.217926 705.205322,364.129547 706.493164,369.162415   C708.674744,377.688416 705.705627,386.029053 698.869690,390.151917   C691.230469,394.759308 681.828125,393.802643 675.441772,387.322021   C668.897278,380.681030 663.072083,373.294373 656.248596,366.971619   C626.126648,339.060516 590.592529,321.432129 550.250061,314.509003   C481.949890,302.788025 420.143463,318.362183 367.592438,363.798920   C330.001007,396.301270 308.080444,438.455383 301.173584,487.973236   C298.743011,505.398987 298.123169,522.816223 303.260345,539.956482   C309.242706,559.916809 330.027771,571.054321 349.594299,564.331116   C361.934967,560.090759 368.530182,550.217163 372.481445,538.315430   C377.019012,524.647644 377.749756,510.228485 380.735474,496.259613   C386.520416,469.194702 399.838348,447.480286 426.404999,436.537354   C464.447021,420.867676 511.911835,436.390747 527.514587,481.007599   C532.234985,494.505707 533.783630,508.533478 536.276733,522.427856   C537.691223,530.310913 539.516663,538.058655 543.202515,545.269958   C549.542297,557.673767 558.396301,566.111816 573.441895,566.008423   C588.578247,565.904480 597.013672,556.752686 603.403564,544.661133   C610.295166,531.620361 612.013000,517.143860 614.704346,502.944214   C618.535889,482.728546 626.013367,464.371582 641.215393,449.768646   C675.257019,417.068604 738.941956,426.517059 757.610291,476.695740   C766.199219,499.782043 765.791016,523.393433 761.963074,547.137634   C753.470886,599.813354 729.039246,644.394653 690.897827,681.137695   C650.761353,719.802673 602.953247,743.330017 547.247375,750.540100   C494.425354,757.376831 444.381470,748.712952 396.987396,724.929260   C371.933563,712.356506 349.906006,695.393188 330.352600,675.271851   C324.356873,669.101990 322.298096,662.096313 325.486267,653.801331   C330.145782,641.678162 347.133667,638.482239 356.503998,648.709961   C371.729797,665.328735 389.744904,678.482971 409.475311,689.236633   C445.755188,709.010437 484.680389,717.540955 525.865417,715.531921   C537.148804,714.981445 548.397949,713.476074 559.857788,710.787109  z"></path>
</svg></svg></g></g><defs><clipPath id="SvgjsClipPath1100"><rect width="1000" height="1000" x="0" y="0" rx="500" ry="500"></rect></clipPath></defs></svg>